Dutch spoken, Nederlands gesproken

Tijdens een zomer bezoek aan het vaste land, wordt Tinker Bell per ongeluk ontdekt en gevangen genomen door een klein meisje. De andere elfjes, geleid door Vidia, zetten een reddingsmissie op door een zware zomerstorm om Tinker Bell te bevrijden. Tinker Bell ontwikkelt echter een speciale band met het eenzame meisje en is vastbesloten om de relatie tussen haar en haar vader te verbeteren. Maar als Tink hierdoor haar redders wegstuurt, om haar nieuwe vriend te helpen; riskeert ze hiermee haar eigen veiligheid en de toekomst van alle elfjes.
 
Tinker Bell must team up with a rival fairy to keep their existence a secret from humans.

------------------ Dutch Friends ------------------
You can find my Friends at: http://www.Film-Test.nl 
------ They got my dutchs subs ---- and more ------

General:

Complete name                    : Tinker Bell and the Great Fairy Rescue\Tinker Bell and the Great Fairy Rescue.avi
Format                           : AVI
Format/Info                      : Audio Video Interleave
File size                        : 1.14 GiB
Duration                         : 1h 13mn
Overall bit rate                 : 2 217 Kbps

Video:

Format                           : MPEG-4 Visual
Format profile                   : Simple@L3
Format settings, BVOP            : No
Format settings, QPel            : No
Format settings, GMC             : No warppoints
Format settings, Matrix          : Default (H.263)
Codec ID                         : XVID
Codec ID/Hint                    : XviD
Duration                         : 1h 13mn
Bit rate                         : 1 823 Kbps
Width                            : 652 pixels
Height                           : 352 pixels
Display aspect ratio             : 1.852
Frame rate                       : 25.000 fps
Color space                      : YUV
Chroma subsampling               : 4:2:0
Bit depth                        : 8 bits
Scan type                        : Progressive
Bits/(Pixel*Frame)               : 0.318
Stream size                      : 956 MiB (82%)
Writing library                  : XviD 1.1.2 (UTC 2006-11-01)

Audio:

Format                           : AC-3
Format/Info                      : Audio Coding 3
Mode extension                   : CM (complete main)
Codec ID                         : 2000
Duration                         : 1h 13mn
Bit rate mode                    : Constant
Bit rate                         : 384 Kbps
Channel(s)                       : 6 channels
Channel positions                : Front: L C R, Side: L R, LFE
Sampling rate                    : 48.0 KHz
Bit depth                        : 16 bits
Stream size                      : 201 MiB (17%)
Alignment                        : Aligned on interleaves
Interleave, duration             : 32 ms (0.80 video frame)
Interleave, preload duration     : 800 ms

